<svg xmlns="http://www.w3.org/2000/svg" xmlns:xlink="http://www.w3.org/1999/xlink" x="0px" y="0px" viewBox="0 0 400 31.6" style="enable-background:new 0 0 400 31.6;" xml:space="preserve">
  <style type="text/css">
    .wh {
      fill: #fff;
    }
  </style>
  <path
    class="wh"
    d="M14.6,4.7H4.5v7.4h9.8v4.2H4.5v13.4H0V0.5h14.6V4.7z M37.4,4.7H25.7v7.4H37v4.2H25.7v9.2h11.6v4.2H21.3V0.5
	h16.1V4.7z M61.3,4.7H49.7v7.4H61v4.2H49.7v9.2h11.6v4.2H45.2V0.5h16.1V4.7z M73.6,0.5v25h8.6v4.2h-13V0.5H73.6z M111.3,4.7v25h-4.5
	v-25h-6.7V0.5H118v4.2H111.3z M128.1,12.1h12.5V0.5h4.5v29.2h-4.5V16.3h-12.5v13.4h-4.5V0.5h4.5V12.1z M170.1,4.7h-11.6v7.4h11.3
	v4.2h-11.3v9.2h11.6v4.2H154V0.5h16.1V4.7z M197.9,0.5c3.5,0,5.8,0.4,7.7,1.7c3.2,2.1,3.5,5.6,3.5,6.9c0,4.2-2.6,7.3-6.5,8.1
	l9.1,12.5h-5.4l-8.4-11.9h-0.8v11.9h-4.5V0.5H197.9z M197.1,13.9h1.4c1.2,0,6.2-0.1,6.2-4.8c0-4.1-3.9-4.5-6.1-4.5h-1.5V13.9z
	 M233.6,4.7H222v7.4h11.3v4.2H222v9.2h11.6v4.2h-16.1V0.5h16.1V4.7z M262.4,7.4c-3.2-2.9-6.3-3.2-7.9-3.2c-6.3,0-10.6,4.7-10.6,11.1
	c0,6.2,4.5,10.9,10.7,10.9c3.5,0,6.2-1.8,7.9-3.4v5.3c-2.9,1.8-6,2.2-8,2.2c-5.3,0-8.6-2.4-10.3-4c-3.4-3.2-4.7-6.9-4.7-11
	c0-5.4,2.2-9.1,4.7-11.4c3-2.8,6.5-3.8,10.5-3.8c2.7,0,5.2,0.5,7.8,2.1V7.4z M298.1,15.1c0,8.6-6.4,15.1-15.2,15.1
	c-8.7,0-15.2-6.6-15.2-15.1c0-8.6,6.4-15.1,15.2-15.1C291.7,0,298.1,6.6,298.1,15.1z M293.7,15.1c0-6.5-4.5-11-10.7-11
	c-6.3,0-10.7,4.5-10.7,11c0,6.5,4.5,11,10.7,11C289.2,26.2,293.7,21.6,293.7,15.1z M305.6,0.5l8.1,20.3l8.1-20.3h4.8l-12.9,31.1
	L300.7,0.5H305.6z M348.3,4.7h-11.6v7.4H348v4.2h-11.3v9.2h11.6v4.2h-16.1V0.5h16.1V4.7z M361.4,0.5c3.5,0,5.8,0.4,7.7,1.7
	c3.2,2.1,3.5,5.6,3.5,6.9c0,4.2-2.6,7.3-6.5,8.1l9.1,12.5h-5.4l-8.4-11.9h-0.8v11.9h-4.5V0.5H361.4z M360.6,13.9h1.4
	c1.2,0,6.2-0.1,6.2-4.8c0-4.1-3.9-4.5-6.1-4.5h-1.5V13.9z M386,17.1l-9.6-16.6h5.1l6.7,11.7l6.7-11.7h5.1l-9.6,16.6v12.6H386V17.1z"/>
</svg>
