<svg xmlns="http://www.w3.org/2000/svg" xmlns:xlink="http://www.w3.org/1999/xlink" x="0px" y="0px" viewBox="0 0 400 220" style="enable-background:new 0 0 400 220;" xml:space="preserve">
  <style type="text/css">
    .wh {
      fill: #fff;
    }
  </style>
  <path
    class="wh"
    d="M33.9,8.1H14.4v14.2h18.8v8.1H14.4V56H5.9V0h28V8.1z M77.1,8.1H54.8v14.2h21.7v8.1H54.8v17.6h22.3V56H46.2V0
	h30.9V8.1z M122.6,8.1h-22.3v14.2h21.7v8.1h-21.7v17.6h22.3V56H91.7V0h30.9V8.1z M145.7,0v47.9h16.5V56h-25V0H145.7z M21.4,88.3
	v47.9h-8.6V88.3H0v-8.1h34.3v8.1H21.4z M53.2,102.4h24V80.2h8.6v56h-8.6v-25.8h-24v25.8h-8.6v-56h8.6V102.4z M133.3,88.3H111v14.2
	h21.7v8.1H111v17.6h22.3v8.1h-30.9v-56h30.9V88.3z M15.9,160.4c6.8,0,11.2,0.8,14.8,3.3c6.1,4.1,6.6,10.7,6.6,13.2
	c0,8.1-5,13.9-12.4,15.6l17.5,23.9H32l-16-22.9h-1.5v22.9H5.9v-56H15.9z M14.4,186.1h2.7c2.4,0,11.9-0.3,11.9-9.2
	c0-7.9-7.5-8.6-11.7-8.6h-2.9V186.1z M84,168.4H61.6v14.2h21.7v8.1H61.6v17.6H84v8.1H53.1v-56H84V168.4z M138.6,173.5
	c-6.2-5.6-12-6.2-15.2-6.2c-12.2,0-20.4,9-20.4,21.3c0,11.8,8.6,21,20.5,21c6.7,0,11.9-3.4,15.1-6.5v10.2
	c-5.6,3.4-11.5,4.2-15.4,4.2c-10.2,0-16.5-4.6-19.8-7.7c-6.5-6.1-9-13.3-9-21.2c0-10.3,4.3-17.5,9-21.9c5.8-5.5,12.5-7.3,20.2-7.3
	c5.1,0,10.1,0.9,14.9,4V173.5z M206.7,188.4c0,16.5-12.3,29.1-29.1,29.1c-16.8,0-29.1-12.6-29.1-29.1s12.3-29.1,29.1-29.1
	C194.3,159.4,206.7,172,206.7,188.4z M198.1,188.4c0-12.4-8.6-21.2-20.6-21.2c-12,0-20.6,8.7-20.6,21.2s8.6,21.2,20.6,21.2
	C189.6,209.6,198.1,200.9,198.1,188.4z M220.3,160.4l15.6,39l15.6-39h9.2L236,220l-24.9-59.6H220.3z M301.9,168.4h-22.3v14.2h21.7
	v8.1h-21.7v17.6h22.3v8.1H271v-56h30.9V168.4z M326.5,160.4c6.8,0,11.2,0.8,14.8,3.3c6.1,4.1,6.6,10.7,6.6,13.2
	c0,8.1-5,13.9-12.4,15.6l17.5,23.9h-10.3l-16-22.9H325v22.9h-8.6v-56H326.5z M325,186.1h2.7c2.4,0,11.9-0.3,11.9-9.2
	c0-7.9-7.5-8.6-11.7-8.6H325V186.1z M373,192.2l-18.4-31.8h9.7l12.9,22.4l12.9-22.4h9.7l-18.4,31.8v24.2H373V192.2z"/>
</svg>
