<svg xmlns="http://www.w3.org/2000/svg" xmlns:xlink="http://www.w3.org/1999/xlink" x="0px" y="0px" viewBox="0 0 400 228" style="enable-background:new 0 0 400 228;" xml:space="preserve">
	<style type="text/css">
		.wh {
			fill-rule: evenodd;
			clip-rule: evenodd;
			fill: #fff;
		}
	</style>
	<path
		class="wh"
		d="M242.2,88.4c-9,0-19.1,0-28.1,0c0,21.8,0,43.5,0,65.2c-7.3,0-11.9,0-19.2,0c0-21.7,0-43.3,0-65.1
	c-9.2,0-19.5,0-28.7,0c0-6.3,0-9.9,0-16.1c25.2,0,50.5,0,75.9,0C242.2,78.5,242.2,82.1,242.2,88.4z M315.6,102c-5.4,0-10.6,0-15.8,0
	c-1.2,0-1.7,0.3-2,1.5c-1.9,6.6-3.9,13.1-5.8,19.7c-0.8,2.8-1.7,5.6-2.6,8.8c-3.4-9.7-6.6-19-9.8-28.4c-0.4-1.3-1-1.6-2.2-1.6
	c-4.5,0.1-9.1,0.1-13.6,0c-1.2,0-1.8,0.3-2.1,1.5c-2.7,8.1-5.5,16.3-8.3,24.4c-0.5,1.3-0.9,2.6-1.4,3.9c-0.1,0-0.2,0-0.3,0
	c-2.9-9.9-5.9-19.8-8.8-29.6c-5.8,0-11.4,0-17.2,0c0.1,0.4,0.2,0.7,0.3,1c6,16.6,12,33.1,17.9,49.7c0.3,0.9,0.9,1,1.7,1
	c3.9,0,7.8-0.1,11.7,0c1.2,0,1.7-0.4,2-1.4c3-8.1,6-16.2,9-24.3c0.8-2.1,1.6-4.2,2.6-6.7c1,2.6,1.8,4.7,2.6,6.8
	c3,8.1,6.1,16.2,9.1,24.3c0.3,0.8,0.5,1.4,1.6,1.4c4.3-0.1,8.6,0,13.1,0C303.1,136.5,309.3,119.4,315.6,102z M315.2,130.9
	c0.4,6.5,2.5,12.2,7,17c4.3,4.5,9.5,6.9,15.6,7.6c7.6,0.8,14.5-0.9,20.4-5.9c6.1-5.2,8.7-12,9-19.8c0.2-6.2-1.2-12-4.8-17.2
	c-7.7-10.9-23.1-13.5-34.3-7.3c-9.2,5.1-12.9,13.4-12.9,23.5C315.2,129.4,315.2,130.2,315.2,130.9z M348.2,138.5
	c-5.7,5-15.1,2.4-17.1-4.9c-1.3-4.5-1.2-9.1,1.7-13.1c2.7-3.7,6.7-4.4,10.9-3.5c4,0.8,6.5,3.3,7.7,7.1c0.4,1.5,0.6,3.1,0.7,4.1
	C351.9,132.4,351.2,135.9,348.2,138.5z M47.4,164.8c9.3,3.5,76.8,27.6,84.2,30.1c1.8,0.6,2,0.5,2-1.5c-0.1-9.6-0.1-37.6-0.1-41.5
	c0-1.9-0.8-2.7-2.6-3.4l-35.6-12.6c3.1-0.8,21.6-5,27.5-6.5c3.6-0.9,6.2-2.9,8.1-6c1.9-3,2.7-6.3,2.7-9.9c-0.2-11.1-0.1-22.2,0-33.4
	c0-3.1-0.9-5.8-2.5-8.4c-2.5-4.1-6.1-6.3-10.5-7.9c-14.9-5.4-83-29.7-86.5-31c-0.7-0.2-1.2-0.3-1.2,0.7c0,0,0,30.3,0,34.1
	c0,6.5,3.9,12.2,9.8,14.4c6.3,2.3,25.1,8.9,27.8,9.9c-8.7,2.5-26.4,5.4-30.1,7.8c-5.3,3.3-7.3,8.2-7.4,14.3
	c-0.1,8.8-0.1,31.5-0.1,34.7C32.7,148.7,32.4,159.8,47.4,164.8z M44.6,70.7c-0.9-0.3-1.3-0.8-1.3-1.8c0-6.5,0-12.9,0-19.4
	c0-0.8,0.3-1.1,1.1-0.8c4.2,1.5,61.3,21.8,69.1,24.6c1.9,0.7,3.7,1.4,5.5,2.3c2.5,1.2,3.8,3.1,3.7,6c-0.1,5.4-0.1,10.5,0,15.9
	c0,0.3,0,0.6,0,1.1C120.2,97.6,49.1,72.3,44.6,70.7z M47.5,152.6c-1.9-0.7-4.1-4.7-4.1-6.8c0-5.8,0.1-15.8,0.1-16.3
	c2.3,0.8,75.4,26.9,78.5,28.1c0.3,0.1,0.8,0.6,0.8,0.9c0.1,6.8,0,18.2,0,20.9C121.1,179,54.9,155.3,47.5,152.6z M49.2,107.1
	c7.4-1.6,32.2-7.4,37.4-8.4c1.1-0.2,2.3,0,3.4,0.4c7.7,2.7,28,9.9,30.1,11.1c1.8,1.1,2.9,3,2.5,5.2c-0.5,2.5-2,4.6-4.5,5.3
	c-5.1,1.3-36.3,8.4-39.7,9c-1.1,0.2-2.4-0.3-3.5-0.7c-4.2-1.5-22.3-8.2-27-10c-2.9-1.1-4.4-3.4-4.2-5.6
	C43.6,110.1,45.7,107.9,49.2,107.1z"/>
</svg>
